<?xml version="1.0" encoding="UTF-8"?>
<svg version="1.1" xmlns="http://www.w3.org/2000/svg" width="423" height="589">
<path d="M0 0 C1.59760513 -0.02900863 3.19526748 -0.05500973 4.79296875 -0.078125 C5.92750488 -0.09830688 5.92750488 -0.09830688 7.08496094 -0.11889648 C15.36693314 -0.127009 21.94863795 1.8903184 29.23046875 5.734375 C30.17792969 6.22164062 30.17792969 6.22164062 31.14453125 6.71875 C32.67701815 7.50821295 34.20432405 8.30772034 35.73046875 9.109375 C35.73046875 9.769375 35.73046875 10.429375 35.73046875 11.109375 C36.72046875 11.109375 37.71046875 11.109375 38.73046875 11.109375 C38.73046875 11.769375 38.73046875 12.429375 38.73046875 13.109375 C39.30796875 13.33625 39.88546875 13.563125 40.48046875 13.796875 C43.32638256 15.45699139 44.72888796 17.50125457 46.73046875 20.109375 C47.55546875 20.851875 48.38046875 21.594375 49.23046875 22.359375 C52.51969777 25.97752692 54.08562648 29.54036868 55.73046875 34.109375 C56.03210938 34.92664063 56.33375 35.74390625 56.64453125 36.5859375 C61.34504139 51.82964796 60.30451587 69.03183833 53.1875 83.17578125 C49.90579732 89.17596532 46.17366718 94.2508116 41.4296875 99.171875 C39.64901612 101.01534245 39.64901612 101.01534245 38.74609375 103.26171875 C37.42600851 105.66325845 36.37806906 105.90645424 33.79296875 106.671875 C30.73244952 107.56008275 30.73244952 107.56008275 28.4140625 109.63671875 C23.64727675 113.8062738 13.80235777 112.33004386 7.85546875 112.359375 C6.29892578 112.3903125 6.29892578 112.3903125 4.7109375 112.421875 C-4.96210311 112.47066713 -12.13531421 109.89540424 -20.64453125 105.546875 C-21.24652344 105.24330078 -21.84851563 104.93972656 -22.46875 104.62695312 C-25.18678301 103.2438299 -27.72825877 101.80355666 -30.26953125 100.109375 C-30.26953125 99.449375 -30.26953125 98.789375 -30.26953125 98.109375 C-31.36265625 97.84125 -32.45578125 97.573125 -33.58203125 97.296875 C-37.08797424 96.16784251 -38.08097673 95.81991236 -40.26953125 93.109375 C-41.078125 91.1640625 -41.078125 91.1640625 -41.70703125 88.984375 C-42.68165694 85.8053603 -43.8034562 82.90419496 -45.26953125 79.921875 C-51.57474093 66.0746645 -51.37383925 52.44992527 -47.26953125 38.109375 C-45.83936968 34.62489201 -44.09523821 31.39888843 -42.26953125 28.109375 C-41.43294619 26.34007554 -40.59959479 24.56924338 -39.76953125 22.796875 C-37.78134694 18.82050638 -35.64554542 16.0633874 -32.26953125 13.109375 C-31.5321875 12.31660156 -30.79484375 11.52382812 -30.03515625 10.70703125 C-21.36631219 2.56468478 -11.38665208 0.30410184 0 0 Z " fill="#B49B79" transform="translate(194.26953125,152.890625)"/>
<path d="M0 0 C3.06082901 2.61730996 5.99631883 5.18657282 6.44921875 9.3671875 C6.4646875 10.0684375 6.48015625 10.7696875 6.49609375 11.4921875 C6.521875 12.1934375 6.54765625 12.8946875 6.57421875 13.6171875 C6.4659375 14.2359375 6.35765625 14.8546875 6.24609375 15.4921875 C3.24609375 17.4921875 3.24609375 17.4921875 0.24609375 18.4296875 C-2.72578582 19.20555129 -2.72578582 19.20555129 -4.09228516 21.02929688 C-7.65513063 24.16602478 -13.61848823 23.0023461 -18.12890625 22.9921875 C-19.26585937 23.02054687 -20.4028125 23.04890625 -21.57421875 23.078125 C-29.87729653 23.09761579 -29.87729653 23.09761579 -34.01171875 20.2421875 C-35.76381588 17.47654539 -36.38997769 16.21254498 -36.25390625 12.9921875 C-36.24359375 12.26 -36.23328125 11.5278125 -36.22265625 10.7734375 C-35.60111864 7.74862114 -34.65108635 5.94054835 -32.75390625 3.4921875 C-23.95111601 -1.49400837 -9.44284828 -5.17012686 0 0 Z " fill="#774644" transform="translate(226.75390625,241.5078125)"/>
<path d="M0 0 C4.06488052 1.48698193 5.73845613 4.95956922 7.875 8.55078125 C9.08057791 10.95294409 9.08057791 10.95294409 11.28515625 11.8359375 C12.3296038 17.58039902 13.19061056 24.03671821 12.28515625 29.8359375 C8.76635212 32.18180692 7.02380924 32.19285339 2.84765625 32.2734375 C1.71457031 32.31339844 0.58148438 32.35335937 -0.5859375 32.39453125 C-3.71484375 31.8359375 -3.71484375 31.8359375 -6.109375 29.546875 C-8.13491835 26.12661445 -8.02136594 23.74409539 -7.71484375 19.8359375 C-8.70484375 19.5059375 -9.69484375 19.1759375 -10.71484375 18.8359375 C-12.70083491 14.86395519 -12.24390448 10.15556279 -11.71484375 5.8359375 C-8.81745572 1.06926687 -5.41445263 -0.23501798 0 0 Z " fill="#774744" transform="translate(238.71484375,175.1640625)"/>
<path d="M0 0 C1.90305392 3.80610785 1.73931409 7.87509678 1 12 C-1.42366557 16.20651904 -4.58360334 19.58360334 -8 23 C-14.45636621 23.74422185 -20.49033954 23.76976768 -26 20 C-28 18 -28 18 -28.1171875 15.9765625 C-27.46625414 9.65620953 -27.46625414 9.65620953 -25.3125 6.625 C-17.30441528 0.99769722 -9.5675011 -0.34650909 0 0 Z " fill="#784946" transform="translate(190,156)"/>
<path d="M0 0 C2.87109375 2.06640625 2.87109375 2.06640625 5 5 C5.375 8.6640625 5.375 8.6640625 5 12.625 C4.896875 13.93726563 4.79375 15.24953125 4.6875 16.6015625 C4 20 4 20 2.8359375 21.9375 C0.0844501 23.52985015 -2.22077434 23.39665372 -5.375 23.375 C-7.05722656 23.38660156 -7.05722656 23.38660156 -8.7734375 23.3984375 C-12.28764599 22.96447955 -14.18878636 22.11740405 -17 20 C-17.8125 17.875 -17.8125 17.875 -18 15 C-18.08507812 14.30261719 -18.17015625 13.60523438 -18.2578125 12.88671875 C-18.57832033 8.74101965 -18.42570212 5.74877945 -15.75 2.4375 C-11.36958117 -1.30519676 -5.39416873 -1.29953729 0 0 Z " fill="#774744" transform="translate(171,226)"/>
<path d="M0 0 C2.77025463 1.38512731 3.88240065 2.56476075 6 5 C6.62822358 8.42032838 6.42334942 10.15330117 4.875 13.25 C1.47895009 16.41964658 -2.11719406 16.89345446 -6.625 17.4375 C-10 17 -10 17 -12.4375 14.9375 C-14.42486082 11.20126166 -14.74539635 9.17421956 -14 5 C-10.00061191 0.30071899 -6.14569407 -1.51203584 0 0 Z " fill="#764641" transform="translate(184,192)"/>
<path d="M0 0 C3.35352755 2.69918071 3.90377072 4.31436636 4.5 8.5625 C3.90918999 12.6243188 3.19404076 13.52873718 0 16 C-2.91015625 16.53125 -2.91015625 16.53125 -6.0625 16.5 C-7.62677734 16.51546875 -7.62677734 16.51546875 -9.22265625 16.53125 C-12 16 -12 16 -13.84375 14.15234375 C-15.44075493 11.17954065 -15.47606396 9.33244774 -15 6 C-10.95694002 -0.06458998 -7.05489561 -1.09018813 0 0 Z " fill="#764640" transform="translate(221,198)"/>
<path d="M0 0 C1.670625 0.061875 1.670625 0.061875 3.375 0.125 C3.375 0.785 3.375 1.445 3.375 2.125 C4.365 2.455 5.355 2.785 6.375 3.125 C7.94435594 6.26371188 7.72701103 8.66355822 7.375 12.125 C5.5 15.0625 5.5 15.0625 2.375 17.125 C-1.0346451 17.69508397 -4.23053534 17.81539959 -7.625 17.125 C-10.41647755 15.04676341 -10.59432718 14.33204154 -11.125 10.75 C-10.50295414 6.24016748 -9.05996142 4.98746785 -5.625 2.125 C-3.625 0.125 -3.625 0.125 0 0 Z " fill="#774842" transform="translate(158.625,185.875)"/>
<path d="M0 0 C0.75522949 -0.01289063 1.51045898 -0.02578125 2.28857422 -0.0390625 C10.57117916 -0.0534639 17.15596254 1.96859825 24.4375 5.8125 C25.06914062 6.13734375 25.70078125 6.4621875 26.3515625 6.796875 C27.8840494 7.58633795 29.4113553 8.38584534 30.9375 9.1875 C30.9375 9.8475 30.9375 10.5075 30.9375 11.1875 C31.9275 11.1875 32.9175 11.1875 33.9375 11.1875 C33.9375 11.8475 33.9375 12.5075 33.9375 13.1875 C34.515 13.414375 35.0925 13.64125 35.6875 13.875 C38.53341381 15.53511639 39.93591921 17.57937957 41.9375 20.1875 C43.2059375 21.3940625 43.2059375 21.3940625 44.5 22.625 C47.09085674 25.34872119 48.570417 27.69384345 49.9375 31.1875 C49.6075 32.1775 49.2775 33.1675 48.9375 34.1875 C48.39480469 33.42824219 47.85210937 32.66898438 47.29296875 31.88671875 C46.57753906 30.89285156 45.86210937 29.89898437 45.125 28.875 C44.41730469 27.88886719 43.70960938 26.90273437 42.98046875 25.88671875 C41.09161598 23.25468871 41.09161598 23.25468871 39.17578125 21.45703125 C37.9375 20.1875 37.9375 20.1875 37.9375 18.1875 C37.421875 18.105 36.90625 18.0225 36.375 17.9375 C32.92703007 16.87658618 30.00793909 15.03785877 26.9375 13.1875 C26.07769531 12.671875 25.21789062 12.15625 24.33203125 11.625 C22.57769435 10.57189156 20.82498263 9.51606912 19.07421875 8.45703125 C16.98761078 7.18239045 16.98761078 7.18239045 14.9375 6.1875 C14.9375 5.5275 14.9375 4.8675 14.9375 4.1875 C11.03835474 3.29015371 7.32015702 2.9988178 3.32421875 2.87109375 C2.07705078 2.82919922 0.82988281 2.78730469 -0.45507812 2.74414062 C-1.74865234 2.70482422 -3.04222656 2.66550781 -4.375 2.625 C-5.68791016 2.58181641 -7.00082031 2.53863281 -8.35351562 2.49414062 C-11.58974288 2.38822773 -14.82604458 2.28615115 -18.0625 2.1875 C-18.0625 1.8575 -18.0625 1.5275 -18.0625 1.1875 C-12.03482736 0.29451146 -6.08384636 0.04987781 0 0 Z " fill="#F3EAE2" transform="translate(199.0625,152.8125)"/>
<path d="M0 0 C2 1.0625 2 1.0625 3 3 C3.5362035 6.66916394 3.82303763 9.84026515 1.625 12.9375 C-1.99314957 15.30321318 -4.68194277 15.37877695 -9 15 C-10.9375 13.5625 -10.9375 13.5625 -12 11 C-12.59187398 6.90127268 -12.9506396 3.34673943 -10.5 -0.125 C-6.80782767 -1.41726032 -3.73890172 -1.00815397 0 0 Z " fill="#764741" transform="translate(234,223)"/>
<path d="M0 0 C2.875 0.9375 2.875 0.9375 5 3 C5.94275052 7.32845458 5.75844749 10.80398665 3.375 14.5625 C0.27451464 16.43910956 -1.43283597 16.59452734 -5 16 C-8.30401987 13.32106497 -9.85036733 11.3766206 -10.3125 7.125 C-10 4 -10 4 -8.375 1.625 C-5.28796154 -0.48718421 -3.67986146 -0.52569449 0 0 Z " fill="#764741" transform="translate(215,168)"/>
<path d="M0 0 C1.37152183 4.11456549 -0.16519531 6.31699789 -2 10 C-2.62261719 11.28003906 -2.62261719 11.28003906 -3.2578125 12.5859375 C-6.65443853 19.21214239 -10.63194956 24.81131162 -16 30 C-16.33 30 -16.66 30 -17 30 C-17.309375 28.4840625 -17.309375 28.4840625 -17.625 26.9375 C-18.74255405 22.90280119 -20.93205033 20.39786018 -23.7578125 17.3828125 C-25 16 -25 16 -25 15 C-17.375 14 -17.375 14 -14 14 C-13.01 13.67 -12.02 13.34 -11 13 C-11 13.66 -11 14.32 -11 15 C-10.01 15 -9.02 15 -8 15 C-7.67 13.35 -7.34 11.7 -7 10 C-5.68 9.67 -4.36 9.34 -3 9 C-3 8.01 -3 7.02 -3 6 C-2.34 6 -1.68 6 -1 6 C-1.020625 5.195625 -1.04125 4.39125 -1.0625 3.5625 C-1 1 -1 1 0 0 Z " fill="#B59D7D" transform="translate(250,224)"/>
<path d="M0 0 C0.75522949 -0.01289063 1.51045898 -0.02578125 2.28857422 -0.0390625 C10.57117916 -0.0534639 17.15596254 1.96859825 24.4375 5.8125 C25.06914062 6.13734375 25.70078125 6.4621875 26.3515625 6.796875 C27.8840494 7.58633795 29.4113553 8.38584534 30.9375 9.1875 C30.9375 9.8475 30.9375 10.5075 30.9375 11.1875 C31.9275 11.1875 32.9175 11.1875 33.9375 11.1875 C33.9375 11.8475 33.9375 12.5075 33.9375 13.1875 C31.9575 12.8575 29.9775 12.5275 27.9375 12.1875 C27.9375 11.1975 27.9375 10.2075 27.9375 9.1875 C27.39222656 9.00574219 26.84695312 8.82398438 26.28515625 8.63671875 C18.9375 6.1875 18.9375 6.1875 17.12475586 5.43676758 C9.99147454 2.67080135 2.9544948 2.63569428 -4.625 2.5 C-5.91986328 2.46583984 -7.21472656 2.43167969 -8.54882812 2.39648438 C-11.71996544 2.31457308 -14.89084594 2.24523603 -18.0625 2.1875 C-18.0625 1.8575 -18.0625 1.5275 -18.0625 1.1875 C-12.03482736 0.29451146 -6.08384636 0.04987781 0 0 Z " fill="#F5EEE7" transform="translate(199.0625,152.8125)"/>
<path d="M0 0 C0.33 0 0.66 0 1 0 C1.0093457 0.59312988 1.01869141 1.18625977 1.02832031 1.79736328 C1.24398957 12.72249103 1.54835168 22.82425805 5.16015625 33.22265625 C5.99419057 35.98078836 6.16272076 38.13926405 6 41 C-0.64217928 31.03673108 -3.67501975 18.33429807 -1.54296875 6.453125 C-1.07533776 4.28654688 -0.56724732 2.14237157 0 0 Z " fill="#E7DED2" transform="translate(146,196)"/>
<path d="M0 0 C2 2 4 4 6 6 C7.34015221 6.15582303 8.68758903 6.25044142 10.03515625 6.31640625 C11.24848633 6.37924805 11.24848633 6.37924805 12.48632812 6.44335938 C13.33646484 6.48267578 14.18660156 6.52199219 15.0625 6.5625 C15.91650391 6.60568359 16.77050781 6.64886719 17.65039062 6.69335938 C19.76672037 6.79976702 21.88333813 6.90041731 24 7 C24 7.33 24 7.66 24 8 C20.14589793 8.05847045 16.29191135 8.09375405 12.4375 8.125 C10.80844727 8.15013672 10.80844727 8.15013672 9.14648438 8.17578125 C3.35520558 8.21098659 -1.54134642 7.98923674 -7 6 C-6.401875 5.7525 -5.80375 5.505 -5.1875 5.25 C-2.71352479 3.83629988 -1.56629745 2.34944617 0 0 Z " fill="#BCA590" transform="translate(190,257)"/>
<path d="M0 0 C4.84659077 0.59104765 8.60748167 1.97944157 13 4 C13 4.99 13 5.98 13 7 C15.31 7.33 17.62 7.66 20 8 C20.33 9.65 20.66 11.3 21 13 C13.43160854 9.42221495 6.66359772 5.0577307 0 0 Z " fill="#D8CCB8" transform="translate(214,158)"/>
<path d="M0 0 C0.33 0 0.66 0 1 0 C1.13277344 0.56589844 1.26554688 1.13179687 1.40234375 1.71484375 C1.57894531 2.44832031 1.75554687 3.18179688 1.9375 3.9375 C2.11152344 4.66839844 2.28554687 5.39929688 2.46484375 6.15234375 C2.83887569 7.99969898 2.83887569 7.99969898 4 9 C5.51928038 9.07179964 7.04167482 9.08392007 8.5625 9.0625 C9.38878906 9.05347656 10.21507812 9.04445312 11.06640625 9.03515625 C11.70449219 9.02355469 12.34257812 9.01195312 13 9 C12.67 9.66 12.34 10.32 12 11 C9.6739143 11.38063221 7.33944736 11.71269945 5 12 C4.01 12.495 4.01 12.495 3 13 C0.62216895 12.91161539 -1.75345146 12.75653579 -4.125 12.5625 C-5.40632812 12.46066406 -6.68765625 12.35882813 -8.0078125 12.25390625 C-8.99523437 12.17011719 -9.98265625 12.08632812 -11 12 C-11 11.67 -11 11.34 -11 11 C-7.04 11 -3.08 11 1 11 C1 10.01 1 9.02 1 8 C0.34 8 -0.32 8 -1 8 C-0.67 5.36 -0.34 2.72 0 0 Z " fill="#A98870" transform="translate(221,228)"/>
<path d="M0 0 C0.78375 0.04125 1.5675 0.0825 2.375 0.125 C2.375 2.435 2.375 4.745 2.375 7.125 C0.065 7.125 -2.245 7.125 -4.625 7.125 C-4.75 4.75 -4.75 4.75 -4.625 2.125 C-2.625 0.125 -2.625 0.125 0 0 Z " fill="#7A4E45" transform="translate(201.625,222.875)"/>
<path d="M0 0 C1.62999441 4.88998324 -1.51531813 9.01268507 -3.6875 13.4375 C-4.120625 14.283125 -4.55375 15.12875 -5 16 C-5.33 15.01 -5.66 14.02 -6 13 C-6.66 13 -7.32 13 -8 13 C-7.34 11.68 -6.68 10.36 -6 9 C-5.01 9 -4.02 9 -3 9 C-3 8.01 -3 7.02 -3 6 C-2.34 6 -1.68 6 -1 6 C-1.020625 5.195625 -1.04125 4.39125 -1.0625 3.5625 C-1 1 -1 1 0 0 Z " fill="#C6B89F" transform="translate(250,224)"/>
<path d="M0 0 C0.33 0.99 0.66 1.98 1 3 C-0.77442409 5.99816485 -2.53540571 8.53540571 -5 11 C-8.0390625 11.1953125 -8.0390625 11.1953125 -11.625 11.125 C-12.81351563 11.10695312 -14.00203125 11.08890625 -15.2265625 11.0703125 C-16.14179688 11.04710937 -17.05703125 11.02390625 -18 11 C-18 10.67 -18 10.34 -18 10 C-16.91332031 10.01353516 -16.91332031 10.01353516 -15.8046875 10.02734375 C-10.01126116 9.94786872 -10.01126116 9.94786872 -4.96875 7.4453125 C-2.9698908 5.08391511 -1.38252731 2.76505463 0 0 Z " fill="#B08E77" transform="translate(189,169)"/>
<path d="M0 0 C0 4.16241375 -0.66208904 8.05242755 -2 12 C-4.125 14.0625 -4.125 14.0625 -6 15 C-5.61471495 8.83543922 -3.52913975 5.01372252 0 0 Z " fill="#E9DDD2" transform="translate(153,180)"/>
<path d="M0 0 C0.33 0.66 0.66 1.32 1 2 C0.360625 2.66 -0.27875 3.32 -0.9375 4 C-3.58912502 7.85690912 -3.68667121 10.37840033 -4 15 C-4.33 15 -4.66 15 -5 15 C-5.56540084 5.38818565 -5.56540084 5.38818565 -2 1 C-1.34 0.67 -0.68 0.34 0 0 Z " fill="#805747" transform="translate(196,244)"/>
<path d="M0 0 C0.99 0 1.98 0 3 0 C1.55746343 3.36591866 -0.33264727 5.51047079 -3 8 C-3 6.35 -3 4.7 -3 3 C-2.34 3 -1.68 3 -1 3 C-0.67 2.01 -0.34 1.02 0 0 Z " fill="#CCBDA9" transform="translate(240,242)"/>
<path d="M0 0 C1.65 0 3.3 0 5 0 C5.33 0.99 5.66 1.98 6 3 C7.29355827 4.37195574 8.62298702 5.71182656 10 7 C7.0280615 5.87548273 4.66559313 4.77706209 2 3 C2 2.34 2 1.68 2 1 C1.34 0.67 0.68 0.34 0 0 Z " fill="#D4C7B7" transform="translate(162,250)"/>
<path d="M0 0 C0 3.25811062 -0.5522078 5.10441559 -2 8 C-2.99 8.33 -3.98 8.66 -5 9 C-4.690625 8.236875 -4.38125 7.47375 -4.0625 6.6875 C-3.32106407 4.81210323 -2.63771783 2.91315348 -2 1 C-1.34 0.67 -0.68 0.34 0 0 Z " fill="#CCBDA7" transform="translate(159,170)"/>
<path d="M0 0 C0.33 0.66 0.66 1.32 1 2 C2.65 1.34 4.3 0.68 6 0 C6 1.32 6 2.64 6 4 C4.02 4 2.04 4 0 4 C0 2.68 0 1.36 0 0 Z " fill="#714739" transform="translate(198,226)"/>
</svg>
